<?xml version="1.0" standalone="no"?><!DOCTYPE svg PUBLIC "-//W3C//DTD SVG 1.1//EN" "http://www.w3.org/Graphics/SVG/1.1/DTD/svg11.dtd"><svg t="1678701162243" class="icon" viewBox="0 0 1024 1024" version="1.1" xmlns="http://www.w3.org/2000/svg" p-id="4288" width="28" height="28" xmlns:xlink="http://www.w3.org/1999/xlink"><path d="M876.35968 460.51328v116.6336a71.68 71.68 0 0 1-71.68 71.68h-146.47296v146.47296a71.68 71.68 0 0 1-71.68 71.68h-116.6336a71.68 71.68 0 0 1-71.68-71.68v-146.47296h-146.47296a71.68 71.68 0 0 1-71.68-71.68v-116.6336a71.68 71.68 0 0 1 71.68-71.68h146.47296v-146.47296a71.68 71.68 0 0 1 71.68-71.68h116.6336a71.68 71.68 0 0 1 71.68 71.68v146.47296h146.47296a71.68 71.68 0 0 1 71.68 71.68z" p-id="4289" fill="#ffffff"></path></svg>