<?xml version="1.0" standalone="no"?><!DOCTYPE svg PUBLIC "-//W3C//DTD SVG 1.1//EN" "http://www.w3.org/Graphics/SVG/1.1/DTD/svg11.dtd"><svg t="1678694509860" class="icon" viewBox="0 0 1024 1024" version="1.1" xmlns="http://www.w3.org/2000/svg" p-id="28545" xmlns:xlink="http://www.w3.org/1999/xlink" width="128" height="128"><path d="M891.072 580.928h-68.928a68.928 68.928 0 1 1-137.856 0H132.928a68.928 68.928 0 1 1 0-137.856h551.36a68.928 68.928 0 1 1 137.856 0h68.928a68.928 68.928 0 1 1 0 137.856z m0-310.144H339.712a68.928 68.928 0 1 1-137.856 0H132.928a68.928 68.928 0 1 1 0-137.856h68.928a68.928 68.928 0 1 1 137.856 0h551.36a68.928 68.928 0 1 1 0 137.856zM132.928 753.216h68.928a68.928 68.928 0 1 1 137.856 0h551.36a68.928 68.928 0 1 1 0 137.856H339.712a68.928 68.928 0 1 1-137.856 0H132.928a68.928 68.928 0 1 1 0-137.856z" p-id="28546" fill="#FFAB19"></path></svg>