<?xml version="1.0" standalone="no"?><!DOCTYPE svg PUBLIC "-//W3C//DTD SVG 1.1//EN" "http://www.w3.org/Graphics/SVG/1.1/DTD/svg11.dtd"><svg t="1678694335934" class="icon" viewBox="0 0 1024 1024" version="1.1" xmlns="http://www.w3.org/2000/svg" p-id="24477" xmlns:xlink="http://www.w3.org/1999/xlink" width="128" height="128"><path d="M884.672 90.752h-159.68c-7.488-29.824-37.632-52.864-72.96-52.864H573.056C562.88 14.848 539.008 0 511.36 0c-27.648 0-51.52 14.976-61.504 37.888H369.536c-35.2 0-65.344 23.04-72.96 52.864H136.96c-41.472 0-72.96 31.04-72.96 68.992v741.952c0 37.888 32.64 68.992 72.96 68.992h746.368c41.472 0 76.608-31.104 76.608-68.992V159.744c1.28-37.952-33.792-68.992-75.264-68.992zM512.64 124.16c33.92 0 60.352 25.28 60.352 55.168 0 31.04-27.712 55.168-60.352 55.168-33.92 0-60.352-25.344-60.352-55.168 0-29.888 26.496-55.168 60.352-55.168z m229.952 570.88c0 13.824-12.608 25.344-27.648 25.344H310.336c-15.04 0-27.648-11.52-27.648-25.344v-23.04c0-13.76 12.608-25.28 27.648-25.28h404.608c15.04 0 27.648 11.52 27.648 25.344v23.04z m0-233.216c0 13.824-12.608 25.28-27.648 25.28H310.336c-15.04 0-27.648-11.52-27.648-25.28v-23.04c0-13.76 12.608-25.28 27.648-25.28h404.608c15.04 0 27.648 11.52 27.648 25.344v23.04z" fill="#FFD500" p-id="24478"></path></svg>