<?xml version="1.0" standalone="no"?><!DOCTYPE svg PUBLIC "-//W3C//DTD SVG 1.1//EN" "http://www.w3.org/Graphics/SVG/1.1/DTD/svg11.dtd"><svg t="1678693628385" class="icon" viewBox="0 0 1024 1024" version="1.1" xmlns="http://www.w3.org/2000/svg" p-id="11030" width="128" height="128" xmlns:xlink="http://www.w3.org/1999/xlink"><path d="M603.36 445.536l-49.376 137.216c39.392 8.032 76.544 19.04 112.32 34.528 20.288 8.8 33.28 21.856 38.528 44.96 17.408 77.28 36.928 154.176 55.2 231.328 8.032 33.92-8.256 55.008-47.872 63.68-38.72 8.48-56.544-2.368-65.6-36.736-15.392-58.592-32.672-116.672-47.872-175.328-3.296-12.704-11.84-17.056-21.28-20.064a301.056 301.056 0 0 0-47.968-11.072c-49.344-7.04-49.536-6.72-70.432 38.976-14.016 30.592-27.584 61.44-45.12 90.272-19.936 32.8-35.904 39.584-72.768 30.24-56.512-14.304-106.688-42.816-157.184-70.56a325.44 325.44 0 0 0-28.032-13.856c-36.576-15.68-50.432-49.504-34.56-84.896 13.12-29.376 48.864-38.4 82.72-21.44 28.096 14.08 56.128 28.384 84.96 40.8 26.528 11.424 31.872 9.184 41.44-17.248 31.904-87.872 63.84-175.744 84.768-267.104 1.344-5.824 2.016-11.776 2.016-17.728 0-11.584-5.792-14.176-16.128-9.696-9.6 4.16-14.56 12.192-19.936 20.48-28.608 43.904-56.8 88.064-86.56 131.168-22.464 32.48-59.104 34.624-83.744 6.368-15.232-17.504-15.296-37.76-4.768-56.576 31.808-56.8 65.152-112.64 104.448-164.864 29.824-39.68 70.88-56 117.056-63.424 66.56-10.784 132.608-15.2 193.984 22.048 31.36 19.04 55.456 45.984 77.376 74.304 14.848 19.136 31.712 22.848 52.64 18.016 33.472-7.744 66.464-18.336 100.256-23.68 38.496-6.048 67.2 30.24 54.016 66.08-8.672 23.68-29.696 32.672-52.256 37.76-37.92 8.576-77.536 12.32-113.728 25.504-50.56 18.432-88.48 7.36-119.424-34.56-4.8-6.592-9.216-13.376-17.12-24.896zM495.68 163.744a99.744 99.744 0 1 0 199.488 0 99.744 99.744 0 0 0-199.488 0z" fill="#4C97FF" p-id="11031"></path></svg>