<?xml version="1.0" standalone="no"?><!DOCTYPE svg PUBLIC "-//W3C//DTD SVG 1.1//EN" "http://www.w3.org/Graphics/SVG/1.1/DTD/svg11.dtd"><svg t="1678694809793" class="icon" viewBox="0 0 1024 1024" version="1.1" xmlns="http://www.w3.org/2000/svg" p-id="36572" xmlns:xlink="http://www.w3.org/1999/xlink" width="128" height="128"><path d="M858.933514 0H165.020203A164.997062 164.997062 0 0 0 0 165.020203v693.959594a165.020203 165.020203 0 0 0 165.020203 165.020203h693.913311a165.020203 165.020203 0 0 0 165.066486-165.020203V165.020203A165.020203 165.020203 0 0 0 858.933514 0zM425.174056 782.868249a50.795028 50.795028 0 0 1-71.784135 71.830418l-65.674848-65.628565-65.697988 65.628565a50.285921 50.285921 0 0 1-35.892068 14.926101 50.355345 50.355345 0 0 1-35.892068-14.926101 50.795028 50.795028 0 0 1 0-71.830418l65.628565-65.628565-65.628565-65.674848a50.795028 50.795028 0 0 1 71.830418-71.830418l65.628565 65.697989 65.674848-65.697989a50.864452 50.864452 0 0 1 71.784135 0 50.795028 50.795028 0 0 1 0 71.830418l-65.628565 65.674848 65.651706 65.628565z m-14.740971-344.897085H165.020203a50.771887 50.771887 0 1 1 0-101.543774h245.412882a50.771887 50.771887 0 1 1 0 101.543774z m0-131.210848H165.020203a50.771887 50.771887 0 1 1 0-101.543774h245.412882a50.771887 50.771887 0 1 1 0 101.543774z m448.546712 469.697808H613.566915a50.771887 50.771887 0 1 1 0-101.497491h245.412882a50.725605 50.725605 0 1 1 0 101.497491z m0-397.751683H787.033672v71.922983a50.748746 50.748746 0 1 1-101.497491 0v-71.922983h-71.85356a50.748746 50.748746 0 1 1 0-101.543774h71.85356V205.216542a50.725605 50.725605 0 1 1 101.497491 0v71.946125h71.946125a50.748746 50.748746 0 0 1 0 101.543774z" p-id="36573" fill="#40BF4A"></path></svg>