<?xml version="1.0" standalone="no"?><!DOCTYPE svg PUBLIC "-//W3C//DTD SVG 1.1//EN" "http://www.w3.org/Graphics/SVG/1.1/DTD/svg11.dtd"><svg t="1678694764954" class="icon" viewBox="0 0 1024 1024" version="1.1" xmlns="http://www.w3.org/2000/svg" p-id="35131" xmlns:xlink="http://www.w3.org/1999/xlink" width="128" height="128"><path d="M513.6 385.6c-68.8 0-124.8 56-124.8 124.8s56 124.8 124.8 124.8 124.8-56 124.8-124.8-56-124.8-124.8-124.8z m0 184c-33.6 0-59.2-27.2-59.2-59.2 0-33.6 27.2-59.2 59.2-59.2 33.6 0 59.2 27.2 59.2 59.2s-27.2 59.2-59.2 59.2z" p-id="35132" fill="#4CBFE6"></path><path d="M513.6 510.4m-30.4 0a30.4 30.4 0 1 0 60.8 0 30.4 30.4 0 1 0-60.8 0Z" p-id="35133" fill="#4CBFE6"></path><path d="M811.2 252.8c-9.6-11.2-27.2-12.8-38.4-1.6-11.2 9.6-12.8 27.2-1.6 38.4 54.4 60.8 83.2 139.2 83.2 220.8 0 83.2-32 163.2-88 225.6-9.6 11.2-9.6 27.2 1.6 38.4 4.8 4.8 11.2 6.4 17.6 6.4 8 0 14.4-3.2 19.2-8 65.6-72 102.4-164.8 102.4-262.4 1.6-96-33.6-187.2-96-257.6z" p-id="35134" fill="#4CBFE6"></path><path d="M712 332.8c-9.6-11.2-27.2-11.2-38.4-1.6s-11.2 27.2-1.6 38.4c35.2 38.4 54.4 88 54.4 140.8 0 52.8-19.2 104-56 142.4-9.6 11.2-9.6 27.2 1.6 38.4 4.8 4.8 11.2 8 17.6 8 6.4 0 14.4-3.2 19.2-8 46.4-48 70.4-112 70.4-179.2 1.6-67.2-24-131.2-67.2-179.2zM169.6 510.4c0-81.6 30.4-160 83.2-220.8 9.6-11.2 9.6-28.8-1.6-38.4-11.2-9.6-28.8-9.6-38.4 1.6-62.4 70.4-97.6 161.6-97.6 256 0 97.6 36.8 190.4 102.4 262.4 4.8 6.4 12.8 8 19.2 8 6.4 0 12.8-1.6 17.6-6.4 11.2-9.6 11.2-27.2 1.6-38.4-54.4-60.8-86.4-140.8-86.4-224z" p-id="35135" fill="#4CBFE6"></path><path d="M297.6 510.4c0-51.2 19.2-102.4 54.4-140.8 9.6-11.2 9.6-27.2-1.6-38.4-11.2-9.6-27.2-9.6-38.4 1.6-43.2 48-68.8 110.4-68.8 176 0 67.2 25.6 131.2 70.4 179.2 4.8 6.4 12.8 8 19.2 8 6.4 0 12.8-3.2 17.6-8 11.2-9.6 11.2-27.2 1.6-38.4-33.6-36.8-54.4-86.4-54.4-139.2z" p-id="35136" fill="#4CBFE6"></path></svg>