<?xml version="1.0" standalone="no"?><!DOCTYPE svg PUBLIC "-//W3C//DTD SVG 1.1//EN" "http://www.w3.org/Graphics/SVG/1.1/DTD/svg11.dtd"><svg t="1678695065021" class="icon" viewBox="0 0 1024 1024" version="1.1" xmlns="http://www.w3.org/2000/svg" p-id="42602" xmlns:xlink="http://www.w3.org/1999/xlink" width="128" height="128"><path d="M512 64a448 448 0 1 0 0 896A448 448 0 0 0 512 64z m148.352 393.472a58.752 58.752 0 0 1-25.728-6.208c-18.048-8.832-38.72-15.552-56.96 6.848-14.336 17.728-22.4 28.8-22.4 28.8s13.504 69.76 25.92 100.544c12.352 30.72 32.832 59.328 79.296 47.488 5.312-1.344 10.624-2.88 16.832-4.736-7.872 15.744-46.912 59.072-103.04 61.312-56.832 2.176-82.304-24.32-104.704-112a3397.376 3397.376 0 0 1-70.528 94.336 55.36 55.36 0 0 1-80.064 0 59.776 59.776 0 0 1 0-82.688c0.64-0.64 1.408-1.088 2.048-1.728a57.984 57.984 0 0 1 33.28-16.192c14.72-2.368 30.528-1.344 45.184 1.472 38.72 7.488 66.624-22.784 55.552-61.632a1471.296 1471.296 0 0 0-16.512-54.976C416 388.224 335.168 391.68 335.168 391.68s27.136-39.36 85.12-50.368c53.12-10.112 97.728 9.6 126.464 104.256 14.08-20.416 26.048-38.72 39.04-56.32 8.768-11.712 17.6-25.344 28.416-34.688 15.104-12.672 27.392-21.312 46.08-21.312 33.216 0 60.16 27.84 60.16 62.144 0.064 34.24-26.88 62.08-60.096 62.08z" fill="#FF8C1A" p-id="42603"></path></svg>